<svg xmlns="http://www.w3.org/2000/svg" x="0px" y="0px"
width="40" height="40"
viewBox="0 0 172 172"
style=" fill:#000000;"><g fill="none" fill-rule="nonzero" stroke="none" stroke-width="1" stroke-linecap="butt" stroke-linejoin="miter" stroke-miterlimit="10" stroke-dasharray="" stroke-dashoffset="0" font-family="none" font-weight="none" font-size="none" text-anchor="none" style="mix-blend-mode: normal"><path d="M0,172v-172h172v172z" fill="none"></path><g fill="#ecf0f1"><path d="M32.25,26.70703l-5.06706,11.2679l-12.84961,1.17578l9.54622,7.99251l-2.6875,12.14974l11.05794,-6.52279l11.33789,6.52279l-3.27539,-12.14974l9.85417,-7.99251l-12.84961,-1.18978zM71.66667,35.83333v14.33333h86v-14.33333zM32.25,69.70703l-5.06706,11.2679l-12.84961,1.17578l9.54622,7.99251l-2.6875,12.14974l11.05794,-6.52279l11.33789,6.52279l-3.27539,-12.14974l9.85417,-7.99251l-12.84961,-1.18978zM71.66667,78.83333v14.33333h86v-14.33333zM32.25,112.70703l-5.06706,11.26791l-12.84961,1.17578l9.54622,7.99251l-2.6875,12.14974l11.05794,-6.52279l11.33789,6.52279l-3.27539,-12.14974l9.85417,-7.99251l-12.84961,-1.18978zM71.66667,121.83333v14.33333h86v-14.33333z"></path></g><path d="M86,172c-47.49649,0 -86,-38.50351 -86,-86v0c0,-47.49649 38.50351,-86 86,-86v0c47.49649,0 86,38.50351 86,86v0c0,47.49649 -38.50351,86 -86,86z" fill="none"></path><path d="M86,168.56c-45.59663,0 -82.56,-36.96337 -82.56,-82.56v0c0,-45.59663 36.96337,-82.56 82.56,-82.56v0c45.59663,0 82.56,36.96337 82.56,82.56v0c0,45.59663 -36.96337,82.56 -82.56,82.56z" fill="none"></path></g></svg>