<?xml version="1.0" encoding="utf-8"?>
<!-- Generator: Adobe Illustrator 26.0.1, SVG Export Plug-In . SVG Version: 6.00 Build 0)  -->
<svg version="1.1" xmlns="http://www.w3.org/2000/svg" xmlns:xlink="http://www.w3.org/1999/xlink" x="0px" y="0px"
	 viewBox="0 0 864 864" style="enable-background:new 0 0 864 864;" xml:space="preserve">
<style type="text/css">
	.st0{fill:#42BC9E;}
</style>
<g id="Layer_4">
	<g id="Layer_6">
		<g>
			<g id="XMLID_00000069358378143024600770000000921788163558761863_">
				<g>
					<polygon class="st0" points="327.54,295.86 327.54,321.33 325.09,321.33 299.6,295.86 					"/>
					<polygon points="325.09,321.33 256.58,321.33 256.58,527.23 226.86,497.51 226.27,498.07 226.27,321.33 181.14,321.33 
						155.67,295.86 299.6,295.86 					"/>
					<polygon class="st0" points="256.58,527.23 256.58,528 226.27,528 226.27,498.07 226.86,497.51 					"/>
					<polygon class="st0" points="181.14,321.33 155.67,321.33 155.67,295.86 					"/>
				</g>
				<g>
				</g>
			</g>
		</g>
	</g>
	<g id="Layer_5">
		<g>
			<g id="XMLID_00000165935978344411165470000015190193171458846336_">
				<g>
					<path d="M514.92,327.45V528h-30.31l-73.71-117.8c-16.2-25.82-31.69-52.36-43.4-77.49l-1.05,0.33
						c1.73,29.29,2.42,57.18,2.42,95.76v97.16l-28.24-28.24V295.86h32.71l74.4,117.44c17.22,27.2,30.67,51.67,41.69,75.42l0.69-0.33
						c-2.76-31-3.44-59.24-3.44-95.42v-93.77L514.92,327.45z"/>
					<polygon class="st0" points="514.92,295.86 514.92,327.45 486.67,299.21 486.67,295.86 					"/>
					<polygon class="st0" points="368.87,525.95 368.87,528 340.63,528 340.63,497.71 					"/>
				</g>
				<g>
				</g>
			</g>
		</g>
	</g>
	<g id="Layer_3">
		<g>
			<g id="XMLID_00000178889299499065582450000000225940876687296932_">
				<g>
					<polygon class="st0" points="699,525.9 699,528 668.69,528 668.69,495.59 					"/>
					<polygon points="699,327.6 699,525.9 668.69,495.59 668.69,419.15 556.4,419.15 556.4,526.82 527.06,497.48 526.45,498.12 
						526.45,295.86 526.68,295.86 556.4,325.59 556.4,392.97 668.69,392.97 668.69,297.52 698.88,327.71 					"/>
					<polygon class="st0" points="699,295.86 699,327.6 698.88,327.71 668.69,297.52 668.69,295.86 					"/>
					<polygon class="st0" points="556.4,526.82 556.4,528 526.45,528 526.45,498.12 527.06,497.48 					"/>
					<polygon class="st0" points="556.4,295.86 556.4,325.59 526.68,295.86 					"/>
				</g>
				<g>
				</g>
			</g>
		</g>
	</g>
</g>
<g id="Layer_25">
	<path class="st0" d="M176.99,574.04h-12.51v-4.51h30.44v4.51h-12.57v36.6h-5.37V574.04z"/>
</g>
<g id="Layer_24">
	<path class="st0" d="M198.89,567.33h5.37v18.42h0.12c0.85-1.53,2.2-2.87,3.84-3.78c1.59-0.92,3.48-1.53,5.49-1.53
		c3.97,0,10.31,2.44,10.31,12.63v17.57h-5.37v-16.96c0-4.76-1.77-8.79-6.83-8.79c-3.48,0-6.22,2.44-7.2,5.37
		c-0.31,0.73-0.37,1.53-0.37,2.56v17.81h-5.37V567.33z"/>
</g>
<g id="Layer_23">
	<path class="st0" d="M238.72,572.82c0.06,1.83-1.28,3.29-3.42,3.29c-1.89,0-3.23-1.46-3.23-3.29c0-1.89,1.4-3.35,3.36-3.35
		C237.44,569.46,238.72,570.92,238.72,572.82z M232.74,610.64v-29.53h5.37v29.53H232.74z"/>
</g>
<g id="Layer_22">
	<path class="st0" d="M246.28,605.15c1.59,1.04,4.39,2.13,7.08,2.13c3.9,0,5.73-1.95,5.73-4.39c0-2.56-1.52-3.96-5.49-5.43
		c-5.31-1.89-7.81-4.82-7.81-8.36c0-4.76,3.84-8.66,10.19-8.66c2.99,0,5.61,0.85,7.26,1.83l-1.34,3.9
		c-1.16-0.73-3.29-1.71-6.04-1.71c-3.17,0-4.94,1.83-4.94,4.03c0,2.44,1.77,3.54,5.61,5c5.12,1.95,7.75,4.51,7.75,8.91
		c0,5.19-4.03,8.85-11.04,8.85c-3.23,0-6.22-0.79-8.3-2.01L246.28,605.15z"/>
</g>
<g id="Layer_21">
	<path class="st0" d="M284.29,610.64v-41.12h5.8l13.18,20.8c3.05,4.82,5.43,9.15,7.38,13.36l0.12-0.06
		c-0.49-5.49-0.61-10.49-0.61-16.9v-17.2h5v41.12h-5.37l-13.05-20.86c-2.87-4.58-5.61-9.27-7.69-13.73l-0.18,0.06
		c0.3,5.19,0.43,10.13,0.43,16.96v17.57H284.29z"/>
</g>
<g id="Layer_20">
	<path class="st0" d="M327.23,596.85c0.12,7.26,4.76,10.25,10.13,10.25c3.84,0,6.16-0.67,8.17-1.53l0.92,3.84
		c-1.89,0.85-5.12,1.83-9.82,1.83c-9.09,0-14.52-5.98-14.52-14.89c0-8.91,5.25-15.92,13.85-15.92c9.64,0,12.2,8.48,12.2,13.91
		c0,1.1-0.12,1.95-0.18,2.5H327.23z M342.97,593.01c0.06-3.42-1.4-8.72-7.44-8.72c-5.43,0-7.81,5-8.24,8.72H342.97z"/>
</g>
<g id="Layer_19">
	<path class="st0" d="M356.88,581.11l5.79,16.59c0.98,2.68,1.77,5.12,2.38,7.56h0.18c0.67-2.44,1.53-4.88,2.5-7.56l5.73-16.59h5.61
		l-11.59,29.53h-5.12l-11.22-29.53H356.88z"/>
</g>
<g id="Layer_18">
	<path class="st0" d="M386.52,596.85c0.12,7.26,4.76,10.25,10.13,10.25c3.84,0,6.16-0.67,8.17-1.53l0.92,3.84
		c-1.89,0.85-5.12,1.83-9.82,1.83c-9.09,0-14.52-5.98-14.52-14.89c0-8.91,5.25-15.92,13.85-15.92c9.64,0,12.2,8.48,12.2,13.91
		c0,1.1-0.12,1.95-0.18,2.5H386.52z M402.26,593.01c0.06-3.42-1.4-8.72-7.44-8.72c-5.43,0-7.81,5-8.24,8.72H402.26z"/>
</g>
<g id="Layer_17">
	<path class="st0" d="M414.09,590.32c0-3.48-0.06-6.47-0.24-9.21h4.7l0.18,5.8h0.24c1.34-3.97,4.58-6.47,8.17-6.47
		c0.61,0,1.04,0.06,1.52,0.18v5.06c-0.55-0.12-1.1-0.18-1.83-0.18c-3.78,0-6.47,2.87-7.2,6.89c-0.12,0.73-0.24,1.59-0.24,2.5v15.74
		h-5.31V590.32z"/>
</g>
<g id="Layer_16">
	<path class="st0" d="M452.46,569.52v17.2h19.89v-17.2h5.37v41.12h-5.37v-19.28h-19.89v19.28h-5.31v-41.12H452.46z"/>
</g>
<g id="Layer_15">
	<path class="st0" d="M503.09,610.64l-0.43-3.72h-0.18c-1.65,2.32-4.82,4.39-9.03,4.39c-5.98,0-9.03-4.21-9.03-8.48
		c0-7.14,6.34-11.04,17.75-10.98v-0.61c0-2.44-0.67-6.83-6.71-6.83c-2.75,0-5.61,0.85-7.69,2.2l-1.22-3.54
		c2.44-1.59,5.98-2.62,9.7-2.62c9.03,0,11.23,6.16,11.23,12.08v11.04c0,2.56,0.12,5.06,0.49,7.08H503.09z M502.3,595.57
		c-5.86-0.12-12.51,0.92-12.51,6.65c0,3.48,2.32,5.12,5.06,5.12c3.84,0,6.28-2.44,7.14-4.94c0.18-0.55,0.31-1.16,0.31-1.71V595.57z"
		/>
</g>
<g id="Layer_14">
	<path class="st0" d="M516.14,590.75c0-3.78-0.12-6.83-0.24-9.64h4.82l0.24,5.06h0.12c2.2-3.6,5.67-5.73,10.49-5.73
		c7.14,0,12.51,6.04,12.51,15.01c0,10.62-6.47,15.86-13.42,15.86c-3.9,0-7.32-1.71-9.09-4.64h-0.12v16.04h-5.31V590.75z
		 M521.45,598.62c0,0.79,0.12,1.52,0.24,2.2c0.98,3.72,4.21,6.28,8.05,6.28c5.67,0,8.97-4.64,8.97-11.41
		c0-5.92-3.11-10.98-8.79-10.98c-3.66,0-7.08,2.62-8.11,6.65c-0.18,0.67-0.37,1.46-0.37,2.2V598.62z"/>
</g>
<g id="Layer_13">
	<path class="st0" d="M550.85,590.75c0-3.78-0.12-6.83-0.24-9.64h4.82l0.24,5.06h0.12c2.2-3.6,5.67-5.73,10.49-5.73
		c7.14,0,12.51,6.04,12.51,15.01c0,10.62-6.47,15.86-13.42,15.86c-3.9,0-7.32-1.71-9.09-4.64h-0.12v16.04h-5.31V590.75z
		 M556.16,598.62c0,0.79,0.12,1.52,0.24,2.2c0.98,3.72,4.21,6.28,8.05,6.28c5.67,0,8.97-4.64,8.97-11.41
		c0-5.92-3.11-10.98-8.79-10.98c-3.66,0-7.08,2.62-8.11,6.65c-0.18,0.67-0.37,1.46-0.37,2.2V598.62z"/>
</g>
<g id="Layer_12">
	<path class="st0" d="M588.55,596.85c0.12,7.26,4.76,10.25,10.13,10.25c3.84,0,6.16-0.67,8.17-1.53l0.92,3.84
		c-1.89,0.85-5.12,1.83-9.82,1.83c-9.09,0-14.52-5.98-14.52-14.89c0-8.91,5.25-15.92,13.85-15.92c9.64,0,12.2,8.48,12.2,13.91
		c0,1.1-0.12,1.95-0.18,2.5H588.55z M604.29,593.01c0.06-3.42-1.4-8.72-7.44-8.72c-5.43,0-7.81,5-8.24,8.72H604.29z"/>
</g>
<g id="Layer_11">
	<path class="st0" d="M616.12,589.1c0-3.05-0.06-5.55-0.24-7.99h4.76l0.3,4.88h0.12c1.46-2.81,4.88-5.55,9.76-5.55
		c4.09,0,10.43,2.44,10.43,12.57v17.63h-5.37v-17.02c0-4.76-1.77-8.72-6.83-8.72c-3.54,0-6.28,2.5-7.2,5.49
		c-0.24,0.67-0.37,1.59-0.37,2.5v17.75h-5.37V589.1z"/>
</g>
<g id="Layer_10">
	<path class="st0" d="M652.96,596.85c0.12,7.26,4.76,10.25,10.13,10.25c3.84,0,6.16-0.67,8.17-1.53l0.92,3.84
		c-1.89,0.85-5.12,1.83-9.82,1.83c-9.09,0-14.52-5.98-14.52-14.89c0-8.91,5.25-15.92,13.85-15.92c9.64,0,12.2,8.48,12.2,13.91
		c0,1.1-0.12,1.95-0.18,2.5H652.96z M668.7,593.01c0.06-3.42-1.4-8.72-7.44-8.72c-5.43,0-7.81,5-8.24,8.72H668.7z"/>
</g>
<g id="Layer_9">
	<path class="st0" d="M706.03,567.33v35.69c0,2.62,0.06,5.61,0.24,7.63h-4.82l-0.24-5.12h-0.12c-1.65,3.29-5.25,5.79-10.07,5.79
		c-7.14,0-12.63-6.04-12.63-15.01c-0.06-9.82,6.04-15.86,13.24-15.86c4.51,0,7.56,2.13,8.91,4.51h0.12v-17.63H706.03z
		 M700.67,593.13c0-0.67-0.06-1.59-0.24-2.26c-0.79-3.42-3.72-6.22-7.75-6.22c-5.55,0-8.84,4.88-8.84,11.41
		c0,5.98,2.93,10.92,8.72,10.92c3.6,0,6.89-2.38,7.87-6.41c0.18-0.73,0.24-1.46,0.24-2.32V593.13z"/>
</g>
</svg>
