<svg xmlns="http://www.w3.org/2000/svg" x="0px" y="0px"
width="40" height="40"
viewBox="0 0 172 172"
style=" fill:#000000;"><g fill="none" fill-rule="nonzero" stroke="none" stroke-width="1" stroke-linecap="butt" stroke-linejoin="miter" stroke-miterlimit="10" stroke-dasharray="" stroke-dashoffset="0" font-family="none" font-weight="none" font-size="none" text-anchor="none" style="mix-blend-mode: normal"><path d="M0,172v-172h172v172z" fill="none"></path><g fill="#ecf0f1"><path d="M86,22.93333c-33.79477,0 -61.56203,27.02573 -62.93229,60.50234c-7.92246,6.59946 -14.22139,13.10799 -18.2638,19.60755c-4.16556,6.69756 -6.18816,14.14873 -3.13542,20.81693c2.50349,5.80673 8.09986,9.26983 14.4901,10.99635c6.42645,1.73631 14.09903,2.04294 22.82135,1.28776c2.43535,-0.21085 4.96851,-0.52564 7.55859,-0.90703c10.67465,8.47582 24.66348,13.82942 39.46146,13.82942c33.45462,0 61.00544,-26.48589 62.8875,-59.49453c1.9388,-1.60431 3.79517,-3.21149 5.52058,-4.81511c6.41767,-5.96466 11.33805,-11.86404 14.36692,-17.81589c3.02887,-5.95184 4.22537,-12.51299 1.54531,-18.31979v-0.0112v-0.0112c-3.05376,-6.54381 -9.80053,-10.15922 -17.62552,-11.72422c-7.50377,-1.50076 -16.53924,-1.29959 -26.78541,0.30234c-10.99428,-8.8856 -24.87231,-14.24375 -39.90938,-14.24375zM139.99636,47.33359c4.03357,-0.07407 7.56302,0.20469 10.45886,0.78385c5.78353,1.15671 8.49907,3.26551 9.46224,5.31901c0.75689,1.64673 0.73759,4.18574 -1.35495,8.29766c-2.09529,4.11732 -6.20491,9.26581 -11.97058,14.62448c-11.53132,10.71735 -29.59155,22.39498 -50.89453,31.92526c-21.28536,9.5224 -42.03751,15.08223 -57.70286,16.43854c-7.83268,0.67816 -14.39713,0.27262 -18.84609,-0.92942c-4.44897,-1.20203 -6.31618,-2.89241 -6.9875,-4.47917l-0.04479,-0.10078l-0.04479,-0.08958c-0.88878,-1.90453 -0.64729,-5.0136 2.47474,-10.03333c1.60777,-2.58505 3.94615,-5.47606 6.86432,-8.53282c0.12052,0.32734 0.21479,0.65981 0.36953,0.98542c1.97484,4.5452 6.39835,7.05645 10.95156,8.11849c4.62305,1.07833 9.90425,1.07451 15.87865,0.38073c11.94879,-1.3876 26.66856,-5.71416 42.00339,-12.49687c15.3586,-6.79323 28.37282,-14.85956 37.37864,-22.78776c4.50291,-3.96409 8.02179,-7.86524 10.34687,-11.93698c2.22775,-3.90127 3.37351,-8.51657 1.71328,-12.93359c-0.27843,-0.92246 -0.70077,-1.72872 -1.16458,-2.48594c0.35596,-0.01165 0.76012,-0.06079 1.1086,-0.06719z"></path></g></g></svg>