<svg xmlns="http://www.w3.org/2000/svg" x="0px" y="0px"
width="40" height="40"
viewBox="0 0 172 172"
style=" fill:#000000;"><g fill="none" fill-rule="nonzero" stroke="none" stroke-width="1" stroke-linecap="butt" stroke-linejoin="miter" stroke-miterlimit="10" stroke-dasharray="" stroke-dashoffset="0" font-family="none" font-weight="none" font-size="none" text-anchor="none" style="mix-blend-mode: normal"><path d="M0,172v-172h172v172z" fill="none"></path><g fill="#ecf0f1"><path d="M86,6.88c-43.62952,0 -79.12,35.49048 -79.12,79.12c0,43.62952 35.49048,79.12 79.12,79.12c43.62952,0 79.12,-35.49048 79.12,-79.12c0,-43.62952 -35.49048,-79.12 -79.12,-79.12zM110.08,48.16c1.89888,0 3.44,1.54112 3.44,3.44c0,1.89888 -1.54112,3.44 -3.44,3.44c-1.89888,0 -3.44,-1.54112 -3.44,-3.44c0,-1.89888 1.54112,-3.44 3.44,-3.44zM99.76,37.84c1.89888,0 3.44,1.54112 3.44,3.44c0,1.89888 -1.54112,3.44 -3.44,3.44c-1.89888,0 -3.44,-1.54112 -3.44,-3.44c0,-1.89888 1.54112,-3.44 3.44,-3.44zM61.92,48.16c1.89888,0 3.44,1.54112 3.44,3.44c0,1.89888 -1.54112,3.44 -3.44,3.44c-1.89888,0 -3.44,-1.54112 -3.44,-3.44c0,-1.89888 1.54112,-3.44 3.44,-3.44zM58.48,61.92c1.89888,0 3.44,1.54112 3.44,3.44c0,1.89888 -1.54112,3.44 -3.44,3.44c-1.89888,0 -3.44,-1.54112 -3.44,-3.44c0,-1.89888 1.54112,-3.44 3.44,-3.44zM37.84,130.72c-1.89888,0 -3.44,-1.54112 -3.44,-3.44c0,-1.89888 1.54112,-3.44 3.44,-3.44c1.89888,0 3.44,1.54112 3.44,3.44c0,1.89888 -1.54112,3.44 -3.44,3.44zM46.81496,117.5448c-0.65016,0.8944 -1.68216,1.37256 -2.7176,1.37256c-0.7568,0 -1.4792,-0.23736 -2.09496,-0.7224c-1.5136,-1.13176 -1.79224,-3.3024 -0.6536,-4.81256c1.1352,-1.5136 3.3024,-1.79224 4.816,-0.6536c1.51016,1.16616 1.8232,3.29896 0.65016,4.816zM55.69016,108.9448c-0.6192,0.4472 -1.3416,0.65016 -2.0296,0.65016c-1.0664,0 -2.09496,-0.4816 -2.7864,-1.40696c-1.1352,-1.5136 -0.7912,-3.6808 0.7224,-4.816l0.0344,0.0344c1.5136,-1.1352 3.6808,-0.8256 4.7816,0.7224c1.1352,1.5136 0.79464,3.6808 -0.7224,4.816zM58.48,79.12c0,-1.89888 1.54112,-3.44 3.44,-3.44c1.89888,0 3.44,1.54112 3.44,3.44c0,1.89888 -1.54112,3.44 -3.44,3.44c-1.89888,0 -3.44,-1.54112 -3.44,-3.44zM65.36,103.2c-1.89888,0 -3.44,-1.54112 -3.44,-3.44c0,-1.89888 1.54112,-3.44 3.44,-3.44c1.89888,0 3.44,1.54112 3.44,3.44c0,1.89888 -1.54112,3.44 -3.44,3.44zM72.24,92.88c-1.89888,0 -3.44,-1.54112 -3.44,-3.44c0,-1.89888 1.54112,-3.44 3.44,-3.44c1.89888,0 3.44,1.54112 3.44,3.44c0,1.89888 -1.54112,3.44 -3.44,3.44zM72.24,44.72c-1.89888,0 -3.44,-1.54112 -3.44,-3.44c0,-1.89888 1.54112,-3.44 3.44,-3.44c1.89888,0 3.44,1.54112 3.44,3.44c0,1.89888 -1.54112,3.44 -3.44,3.44zM86,96.32c-1.89888,0 -3.44,-1.54112 -3.44,-3.44c0,-1.89888 1.54112,-3.44 3.44,-3.44c1.89888,0 3.44,1.54112 3.44,3.44c0,1.89888 -1.54112,3.44 -3.44,3.44zM86,41.28c-1.89888,0 -3.44,-1.54112 -3.44,-3.44c0,-1.89888 1.54112,-3.44 3.44,-3.44c1.89888,0 3.44,1.54112 3.44,3.44c0,1.89888 -1.54112,3.44 -3.44,3.44zM99.76,92.88c-1.89888,0 -3.44,-1.54112 -3.44,-3.44c0,-1.89888 1.54112,-3.44 3.44,-3.44c1.89888,0 3.44,1.54112 3.44,3.44c0,1.89888 -1.54112,3.44 -3.44,3.44zM106.64,103.2c-1.89888,0 -3.44,-1.54112 -3.44,-3.44c0,-1.89888 1.54112,-3.44 3.44,-3.44c1.89888,0 3.44,1.54112 3.44,3.44c0,1.89888 -1.54112,3.44 -3.44,3.44zM110.08,82.56c-1.89888,0 -3.44,-1.54112 -3.44,-3.44c0,-1.89888 1.54112,-3.44 3.44,-3.44c1.89888,0 3.44,1.54112 3.44,3.44c0,1.89888 -1.54112,3.44 -3.44,3.44zM110.08,65.36c0,-1.89888 1.54112,-3.44 3.44,-3.44c1.89888,0 3.44,1.54112 3.44,3.44c0,1.89888 -1.54112,3.44 -3.44,3.44c-1.89888,0 -3.44,-1.54112 -3.44,-3.44zM121.1224,108.188c-0.688,0.9288 -1.72,1.40696 -2.78984,1.40696c-0.68456,0 -1.40696,-0.2064 -2.0296,-0.65016c-1.51016,-1.1352 -1.8576,-3.268 -0.7224,-4.816c1.1008,-1.548 3.268,-1.8576 4.78504,-0.7224c1.54456,1.1008 1.892,3.268 0.7568,4.7816zM127.8992,118.91736c-1.032,0 -2.064,-0.4816 -2.7176,-1.37256c-1.1696,-1.5136 -0.86,-3.6808 0.6536,-4.816c1.51016,-1.1352 3.67736,-0.86 4.81256,0.6536c1.1352,1.51016 0.86,3.6808 -0.65016,4.81256c-0.62264,0.48504 -1.376,0.7224 -2.0984,0.7224zM134.16,130.72c-1.89888,0 -3.44,-1.54112 -3.44,-3.44c0,-1.89888 1.54112,-3.44 3.44,-3.44c1.89888,0 3.44,1.54112 3.44,3.44c0,1.89888 -1.54112,3.44 -3.44,3.44z"></path></g></g></svg>